<?xml version="1.0" encoding="utf-8" ?>
<svg baseProfile="tiny" height="100%" version="1.2" width="100%" xmlns="http://www.w3.org/2000/svg" xmlns:ev="http://www.w3.org/2001/xml-events" xmlns:xlink="http://www.w3.org/1999/xlink"><defs /><path d="M 0,0 L 0,1023 L 1021,1023 L 1022,1022 L 1023,1023 L 1023,1021 L 1022,1020 L 1022,1018 L 1023,1017 L 1023,170 L 1022,169 L 1022,167 L 1023,166 L 1023,29 L 1022,28 L 1023,27 L 1023,24 L 1022,23 L 1023,22 L 1023,21 L 1022,20 L 1022,3 L 1021,2 L 1022,1 L 1021,0 L 1020,1 L 1019,1 L 1018,0 L 1017,0 L 1016,1 L 1000,1 L 999,0 L 939,0 L 938,1 L 928,1 L 927,0 L 844,0 L 843,1 L 840,1 L 839,0 L 784,0 L 783,1 L 780,1 L 779,0 L 778,0 L 777,1 L 776,0 L 760,0 L 759,1 L 758,1 L 757,0 L 707,0 L 706,1 L 705,0 L 699,0 L 698,1 L 692,1 L 691,0 L 674,0 L 673,1 L 662,1 L 661,0 L 269,0 L 268,1 L 252,1 L 251,0 L 242,0 L 241,1 L 235,1 L 234,0 L 18,0 L 17,1 L 7,1 L 6,0" fill="none" stroke="black" /></svg>